<mxfile modified="2021-10-31T06:51:59.379Z" host="app.diagrams.net" agent="5.0 (Windows NT 6.3; Win64; x64) AppleWebKit/537.36 (KHTML, like Gecko) Chrome/92.0.4515.159 Safari/537.36" etag="IpfWWmJIBShuWJU6PhZq" version="15.6.2" type="github">
  <diagram id="fwKp2XOQM0QRLQyKSSzV" name="第 1 页">
    <mxGraphModel dx="1422" dy="737" grid="1" gridSize="10" guides="1" tooltips="1" connect="1" arrows="1" fold="1" page="1" pageScale="1" pageWidth="1169" pageHeight="827" math="0" shadow="0">
      <root>
        <mxCell id="0" />
        <mxCell id="1" parent="0" />
        <mxCell id="K1gjwdnqa1Q1dgGTSck5-3" value="URDFType" style="swimlane;fontStyle=3;align=center;verticalAlign=top;childLayout=stackLayout;horizontal=1;startSize=26;horizontalStack=0;resizeParent=1;resizeParentMax=0;resizeLast=0;collapsible=1;marginBottom=0;" parent="1" vertex="1">
          <mxGeometry x="340" y="60" width="290" height="740" as="geometry" />
        </mxCell>
        <mxCell id="K1gjwdnqa1Q1dgGTSck5-4" value="- _ATTRIBS: (type -&amp;gt; required), &lt;br&gt;    whether an attributed is requried &lt;br&gt;&lt;br&gt;- _ELEMENTS: dictionary&lt;br&gt;    [element name: str] -&amp;gt; (type, required, multiple)&lt;br&gt;   multiple means whether there can be multiple&lt;br&gt;   instances of this element&lt;br&gt;&lt;br&gt;- _TAG: sring,&lt;br&gt;    representing the XML tag for the node containing&lt;br&gt;    this type of the objet" style="text;strokeColor=none;fillColor=none;align=left;verticalAlign=top;spacingLeft=4;spacingRight=4;overflow=hidden;rotatable=0;points=[[0,0.5],[1,0.5]];portConstraint=eastwest;html=1;" parent="K1gjwdnqa1Q1dgGTSck5-3" vertex="1">
          <mxGeometry y="26" width="290" height="164" as="geometry" />
        </mxCell>
        <mxCell id="K1gjwdnqa1Q1dgGTSck5-5" value="" style="line;strokeWidth=1;fillColor=none;align=left;verticalAlign=middle;spacingTop=-1;spacingLeft=3;spacingRight=3;rotatable=0;labelPosition=right;points=[];portConstraint=eastwest;" parent="K1gjwdnqa1Q1dgGTSck5-3" vertex="1">
          <mxGeometry y="190" width="290" height="8" as="geometry" />
        </mxCell>
        <mxCell id="K1gjwdnqa1Q1dgGTSck5-6" value="- [static] _parse_attrib(&#xa;        val_type: Type,&#xa;        val:          Object to be parsed&#xa;    ) -&gt; Obj: parsed result&#xa;&#xa;- [static] _parse_simple_attribs(&#xa;       node: whose attributes are to be parsed&#xa;    ) -&gt; Dict: attribute name to value&#xa;&#xa;- [static] _parse_simple_elements(&#xa;        node: whose children elements are to be parsed,&#xa;        path: XML path&#xa;    ) -&gt; Dict: elements name to URDFType&#xa;&#xa;- [static] _parse(&#xa;        node: node to be parsed, including attributes&#xa;                  and elements&#xa;    ) -&gt; Dict: names to elements &amp; attributes&#xa;&#xa;- [static] _from_xml(&#xa;        node: to be parsed&#xa;        path: location of the XML&#xa;    ) -&gt; URDFType instance parsed from the node&#xa;# just create one from whatever returned by _parse&#xa;&#xa;- _unparse_...: recover a string representation&#xa;                        from the object&#xa;   {&#xa;        _unparse_attrib,&#xa;        _unparse_simple_attribs,&#xa;       _unparse_simple_elements&#xa;    }&#xa;    based on the above methods, there are inverses&#xa;    to the other static methods&#xa;    {&#xa;        _unparse &lt;-&gt; _parse&#xa;        _to_xml   &lt;-&gt; _from_xml&#xa;    }" style="text;strokeColor=none;fillColor=none;align=left;verticalAlign=top;spacingLeft=4;spacingRight=4;overflow=hidden;rotatable=0;points=[[0,0.5],[1,0.5]];portConstraint=eastwest;" parent="K1gjwdnqa1Q1dgGTSck5-3" vertex="1">
          <mxGeometry y="198" width="290" height="542" as="geometry" />
        </mxCell>
        <mxCell id="K1gjwdnqa1Q1dgGTSck5-7" value="Box" style="swimlane;fontStyle=1;align=center;verticalAlign=top;childLayout=stackLayout;horizontal=1;startSize=26;horizontalStack=0;resizeParent=1;resizeParentMax=0;resizeLast=0;collapsible=1;marginBottom=0;html=1;" parent="1" vertex="1">
          <mxGeometry x="340" y="890" width="290" height="208" as="geometry" />
        </mxCell>
        <mxCell id="K1gjwdnqa1Q1dgGTSck5-8" value="+ meshes: List[Trimesh], representing the surfaces&#xa;       READONLY&#xa;+ size: the input size, np.ndarray of shape (3,)&#xa;&#xa;- _ATTRIBS     = {(size, True)}&#xa;- _TAGS          = {&#39;Box&#39;}&#xa;- _ELEMENTS = {}" style="text;strokeColor=none;fillColor=none;align=left;verticalAlign=top;spacingLeft=4;spacingRight=4;overflow=hidden;rotatable=0;points=[[0,0.5],[1,0.5]];portConstraint=eastwest;" parent="K1gjwdnqa1Q1dgGTSck5-7" vertex="1">
          <mxGeometry y="26" width="290" height="114" as="geometry" />
        </mxCell>
        <mxCell id="K1gjwdnqa1Q1dgGTSck5-9" value="" style="line;strokeWidth=1;fillColor=none;align=left;verticalAlign=middle;spacingTop=-1;spacingLeft=3;spacingRight=3;rotatable=0;labelPosition=right;points=[];portConstraint=eastwest;" parent="K1gjwdnqa1Q1dgGTSck5-7" vertex="1">
          <mxGeometry y="140" width="290" height="8" as="geometry" />
        </mxCell>
        <mxCell id="K1gjwdnqa1Q1dgGTSck5-10" value="~ __init__(&#xa;        size: Tuple (float length, float width, float height)\&#xa;    ) # create a rect prism certered at the origin " style="text;strokeColor=none;fillColor=none;align=left;verticalAlign=top;spacingLeft=4;spacingRight=4;overflow=hidden;rotatable=0;points=[[0,0.5],[1,0.5]];portConstraint=eastwest;" parent="K1gjwdnqa1Q1dgGTSck5-7" vertex="1">
          <mxGeometry y="148" width="290" height="60" as="geometry" />
        </mxCell>
        <mxCell id="K1gjwdnqa1Q1dgGTSck5-12" value="Extends" style="endArrow=block;endSize=16;endFill=0;html=1;exitX=0.5;exitY=0;exitDx=0;exitDy=0;" parent="1" source="K1gjwdnqa1Q1dgGTSck5-7" target="K1gjwdnqa1Q1dgGTSck5-6" edge="1">
          <mxGeometry width="160" relative="1" as="geometry">
            <mxPoint x="340" y="1000" as="sourcePoint" />
            <mxPoint x="500" y="1000" as="targetPoint" />
          </mxGeometry>
        </mxCell>
        <mxCell id="K1gjwdnqa1Q1dgGTSck5-13" value="1" style="endArrow=open;html=1;endSize=12;startArrow=diamondThin;startSize=14;startFill=0;edgeStyle=orthogonalEdgeStyle;align=left;verticalAlign=bottom;" parent="1" target="K1gjwdnqa1Q1dgGTSck5-17" edge="1">
          <mxGeometry x="0.002" y="-43" relative="1" as="geometry">
            <mxPoint x="340" y="930" as="sourcePoint" />
            <mxPoint x="140" y="930" as="targetPoint" />
            <mxPoint x="43" y="43" as="offset" />
          </mxGeometry>
        </mxCell>
        <mxCell id="K1gjwdnqa1Q1dgGTSck5-17" value="Trimesh" style="html=1;" parent="1" vertex="1">
          <mxGeometry x="85" y="905" width="110" height="50" as="geometry" />
        </mxCell>
        <mxCell id="K1gjwdnqa1Q1dgGTSck5-18" value="pkg: trimesh" style="shape=component;align=left;spacingLeft=36;html=1;" parent="1" vertex="1">
          <mxGeometry x="80" y="780" width="120" height="60" as="geometry" />
        </mxCell>
        <mxCell id="K1gjwdnqa1Q1dgGTSck5-19" value="" style="endArrow=open;startArrow=circlePlus;endFill=0;startFill=0;endSize=8;html=1;exitX=0.5;exitY=0;exitDx=0;exitDy=0;entryX=0.5;entryY=1;entryDx=0;entryDy=0;" parent="1" source="K1gjwdnqa1Q1dgGTSck5-17" target="K1gjwdnqa1Q1dgGTSck5-18" edge="1">
          <mxGeometry width="160" relative="1" as="geometry">
            <mxPoint x="20" y="970" as="sourcePoint" />
            <mxPoint x="180" y="970" as="targetPoint" />
          </mxGeometry>
        </mxCell>
        <mxCell id="iCs_MiosVnf1JSAj2xHy-1" value="Cylinder" style="swimlane;fontStyle=1;align=center;verticalAlign=top;childLayout=stackLayout;horizontal=1;startSize=26;horizontalStack=0;resizeParent=1;resizeParentMax=0;resizeLast=0;collapsible=1;marginBottom=0;html=1;" vertex="1" parent="1">
          <mxGeometry x="670" y="890" width="290" height="178" as="geometry" />
        </mxCell>
        <mxCell id="iCs_MiosVnf1JSAj2xHy-2" value="+ TODO? &#xa;&#xa;- _ATTRIBS     = {(radius, length)}&#xa;- _TAGS          = {&#39;cylinder&#39;}&#xa;- _ELEMENTS = {}" style="text;strokeColor=none;fillColor=none;align=left;verticalAlign=top;spacingLeft=4;spacingRight=4;overflow=hidden;rotatable=0;points=[[0,0.5],[1,0.5]];portConstraint=eastwest;" vertex="1" parent="iCs_MiosVnf1JSAj2xHy-1">
          <mxGeometry y="26" width="290" height="84" as="geometry" />
        </mxCell>
        <mxCell id="iCs_MiosVnf1JSAj2xHy-3" value="" style="line;strokeWidth=1;fillColor=none;align=left;verticalAlign=middle;spacingTop=-1;spacingLeft=3;spacingRight=3;rotatable=0;labelPosition=right;points=[];portConstraint=eastwest;" vertex="1" parent="iCs_MiosVnf1JSAj2xHy-1">
          <mxGeometry y="110" width="290" height="8" as="geometry" />
        </mxCell>
        <mxCell id="iCs_MiosVnf1JSAj2xHy-4" value="~ __init__(&#xa;        ???&#xa;    ) #  " style="text;strokeColor=none;fillColor=none;align=left;verticalAlign=top;spacingLeft=4;spacingRight=4;overflow=hidden;rotatable=0;points=[[0,0.5],[1,0.5]];portConstraint=eastwest;" vertex="1" parent="iCs_MiosVnf1JSAj2xHy-1">
          <mxGeometry y="118" width="290" height="60" as="geometry" />
        </mxCell>
      </root>
    </mxGraphModel>
  </diagram>
</mxfile>
